# 3ds Max Wavefront OBJ Exporter v0.97b - (c)2007 guruware
# File Created: 11.12.2016 15:06:57

mtllib mars_rocks.mtl

#
# object mars_rock_1
#

v  -3.7196 0.8610 10.5014
v  -4.4991 -4.8471 8.5599
v  -1.1891 -2.4066 10.8296
v  -6.3708 -5.3754 0.0000
v  0.9646 -7.9889 0.0000
v  0.9646 -8.6190 3.6800
v  -7.1176 -6.0055 3.6800
v  6.3708 5.3754 0.0000
v  6.4751 5.5527 3.6800
v  8.3490 4.5640 3.6800
v  7.9847 4.5716 0.0000
v  -0.3985 7.3844 0.4581
v  -1.6262 6.9274 2.7053
v  -7.6545 -0.6594 3.6800
v  -7.0347 -1.3676 0.0000
v  0.9646 -6.4096 7.3601
v  -0.6247 -2.9758 10.7204
v  6.7477 3.3723 7.3601
v  5.2434 4.2804 7.3601
v  3.7519 2.5934 9.4541
v  1.2958 4.4373 8.3929
v  4.4991 -3.7961 7.3601
v  7.1176 -6.0055 3.6800
v  -1.2998 5.1336 6.2321
v  -6.1244 -2.5080 6.9961
v  -5.7909 3.0704 3.6800
v  6.3708 -5.3754 0.0000
v  -4.8346 4.2267 0.4567
v  -5.3001 4.6446 2.7065
v  -0.0162 -0.6591 10.6625
v  0.4175 -1.0890 10.6232
v  6.0952 -1.7358 7.3601
v  4.4991 0.7821 7.3601
v  8.7497 -1.2592 3.6800
v  11.2189 1.0870 3.6800
v  7.8359 -1.7056 0.0000
v  10.7190 1.2064 0.0000
v  -5.0441 2.4403 0.0000
v  7.8262 -3.9064 0.0000
v  8.5730 -3.6348 3.6800
# 40 vertices

vn -0.4912 0.3211 0.8097
vn -0.5071 -0.6094 0.6095
vn -0.3965 -0.2764 0.8754
vn -0.1347 -0.1685 0.9765
vn -0.3083 -0.9291 -0.2044
vn -0.3313 -0.9300 -0.1592
vn -0.3224 -0.9299 -0.1769
vn -0.3001 -0.9282 -0.2198
vn 0.3293 0.9441 -0.0153
vn 0.3074 0.9333 0.1857
vn 0.6282 0.7522 0.1988
vn 0.6140 0.7870 -0.0612
vn 0.2886 0.8951 0.3397
vn 0.1753 0.9267 0.3325
vn -0.9754 -0.1224 -0.1834
vn -0.9720 -0.0976 -0.2140
vn -0.9762 -0.1310 -0.1727
vn -0.9777 -0.1619 -0.1335
vn -0.1051 -0.8102 0.5766
vn -0.0612 -0.4100 0.9100
vn 0.3551 0.5881 0.7267
vn 0.3060 0.6230 0.7199
vn 0.1106 0.5705 0.8138
vn -0.0553 0.6084 0.7917
vn 0.5354 -0.7241 0.4347
vn 0.3007 -0.7080 0.6390
vn 0.2313 0.8973 0.3759
vn 0.5354 0.7070 0.4620
vn 0.0893 0.9240 0.3719
vn 0.0920 0.9747 0.2036
vn -0.8672 -0.0050 0.4980
vn -0.6930 0.5200 0.4993
vn 0.3804 -0.8956 -0.2306
vn 0.4301 -0.8898 -0.1524
vn -0.6966 -0.5550 0.4547
vn -0.2076 -0.8726 0.4420
vn -0.5391 0.8250 -0.1699
vn -0.5596 0.7863 -0.2618
vn -0.5520 0.8030 -0.2249
vn -0.5243 0.8437 -0.1149
vn -0.4586 0.7369 0.4966
vn 0.0574 0.1962 0.9789
vn 0.4995 0.3166 0.8064
vn 0.6753 0.3365 0.6563
vn 0.5733 0.3634 0.7343
vn 0.5484 -0.4482 0.7060
vn 0.4415 -0.4646 0.7676
vn 0.4465 -0.4406 0.7788
vn 0.6966 -0.7100 -0.1029
vn 0.7077 -0.7007 -0.0907
vn 0.6967 -0.7100 -0.1028
vn 0.6841 -0.7200 -0.1163
vn -0.9139 0.3290 -0.2378
vn -0.9168 0.3188 -0.2406
vn -0.9605 0.1643 -0.2247
vn -0.9580 0.1711 -0.2300
vn -0.4755 0.7655 0.4334
vn -0.5544 0.6321 0.5414
vn -0.0458 -0.0162 -0.9988
vn 0.0000 0.0000 -1.0000
vn -0.0305 0.0082 -0.9995
vn -0.0120 0.0186 -0.9998
vn 0.0164 0.0223 -0.9996
vn 0.1439 -0.0436 -0.9886
vn -0.1876 0.2639 -0.9461
vn -0.0210 0.0317 -0.9993
vn 0.0676 0.0010 -0.9977
vn -0.1568 -0.3148 -0.9361
vn -0.8391 0.2074 0.5028
vn 0.4694 -0.3637 0.8046
vn 0.4682 -0.2145 0.8572
vn 0.6114 -0.4403 0.6575
vn 0.6270 -0.3849 0.6773
vn 0.6203 -0.4100 0.6687
vn 0.6028 -0.4670 0.6469
vn 0.7936 -0.5732 -0.2038
vn 0.8243 -0.5060 -0.2539
vn 0.7626 -0.6268 -0.1599
vn 0.7074 -0.7008 -0.0918
vn 0.3994 -0.5401 0.7408
vn 0.5994 -0.4871 0.6352
vn 0.4971 -0.4316 0.7527
vn 0.7683 0.6304 0.1106
vn 0.7733 0.6283 -0.0847
vn 0.5575 0.1315 0.8197
vn 0.4591 0.3903 0.7981
vn 0.0912 0.0009 0.9958
vn 0.8132 -0.0605 0.5788
vn 0.8043 0.0738 0.5897
vn 0.9740 -0.0498 -0.2212
vn 0.9801 -0.0043 -0.1986
vn 0.9772 -0.0281 -0.2105
vn 0.9700 -0.0721 -0.2321
vn -0.8640 0.4424 -0.2402
vn -0.8621 0.4506 -0.2319
# 95 vertex normals

vt -0.3433 0.4618 0.0000
vt -0.3686 0.5037 0.0000
vt -0.3078 0.5052 0.0000
vt -0.3371 0.5247 0.0000
vt -0.4542 0.3896 0.0000
vt -0.3046 0.2733 0.0000
vt -0.3011 0.3483 0.0000
vt -0.4056 0.4200 0.0000
vt -0.1114 0.6086 0.0000
vt 0.7923 0.4836 0.0000
vt 0.8281 0.5191 0.0000
vt 0.8721 0.6322 0.0000
vt 0.7704 0.6851 0.0000
vt -0.1415 0.6595 0.0000
vt -0.2097 0.6067 0.0000
vt -0.1864 0.5737 0.0000
vt 0.7514 0.7436 0.0000
vt -0.3484 0.7480 0.0000
vt -0.3575 0.6701 0.0000
vt 0.7000 0.7703 0.0000
vt -0.4918 0.5623 0.0000
vt -0.4178 0.5661 0.0000
vt -0.2956 0.4088 0.0000
vt -0.3084 0.4997 0.0000
vt -0.2334 0.5475 0.0000
vt -0.2343 0.5590 0.0000
vt 0.5337 0.7938 0.0000
vt -0.2755 0.5316 0.0000
vt 0.3606 0.6617 0.0000
vt 0.3769 0.5492 0.0000
vt -0.3029 0.5619 0.0000
vt -0.2120 0.3936 0.0000
vt -0.2600 0.4422 0.0000
vt -0.3390 0.5941 0.0000
vt -0.3724 0.4824 0.0000
vt -0.1711 0.3411 0.0000
vt -0.4708 0.6263 0.0000
vt 0.4620 0.4643 0.0000
vt -0.4266 0.6009 0.0000
vt -0.2948 0.5163 0.0000
vt -0.2932 0.5124 0.0000
vt 0.4828 0.4168 0.0000
vt -0.2427 0.4702 0.0000
vt -0.2478 0.5077 0.0000
vt -0.1855 0.4403 0.0000
vt -0.1804 0.4986 0.0000
vt -0.1237 0.4022 0.0000
vt -0.0985 0.4680 0.0000
vt -0.1828 0.4710 0.0000
vt 0.6285 0.3724 0.0000
vt -0.1127 0.4308 0.0000
vt -0.4113 0.4884 0.0000
vt -0.4682 0.4539 0.0000
# 53 texture coords

g mars_rock_1
usemtl mars_rocks
s 2
f 1/4/1 2/1/2 2/2/3
f 2/2/3 3/3/4 1/4/1
s 4
f 4/5/5 5/6/6 6/7/7
f 6/7/7 7/8/8 4/5/5
s 524288
f 8/14/9 9/15/10 10/16/11
f 10/16/11 11/9/12 8/14/9
f 8/14/9 12/18/13 13/19/14
f 13/19/14 9/15/10 8/14/9
s 8
f 4/5/15 7/8/16 14/52/17
f 14/52/17 15/53/18 4/5/15
s 2
f 2/1/2 16/23/19 17/24/20
f 17/24/20 2/2/3 2/1/2
f 18/25/21 19/26/22 20/28/23
f 20/28/23 19/26/22 21/31/24
s off
f 22/33/25 16/23/25 6/7/25
f 6/7/26 23/32/26 22/33/26
s 524288
f 19/26/27 18/25/28 10/16/11
f 10/16/11 9/15/10 19/26/27
f 19/26/27 9/15/10 24/34/29
f 24/34/29 21/31/30 19/26/27
s 2
f 25/35/31 1/4/1 26/22/32
s off
f 27/36/33 23/32/33 6/7/33
f 6/7/34 5/6/34 27/36/34
s 2
f 2/1/2 7/8/35 6/7/36
f 6/7/36 16/23/19 2/1/2
s 4
f 12/18/37 28/37/38 29/39/39
f 29/39/39 13/19/40 12/18/37
s 2
f 24/34/41 1/4/1 21/31/24
f 21/31/24 30/40/42 20/28/23
s 1
f 31/41/43 32/43/44 33/44/45
s 4
f 33/44/46 34/49/47 35/46/48
s 8
f 34/49/49 36/51/50 37/48/51
f 37/48/51 35/46/52 34/49/49
s 16
f 38/21/53 26/22/54 29/39/55
f 29/39/55 28/37/56 38/21/53
s 2
f 24/34/41 13/19/57 29/39/58
s 524288
f 24/34/29 9/15/10 13/19/14
s 1
f 11/11/59 37/12/60 36/13/61
f 36/13/61 39/17/60 27/20/62
f 27/20/62 5/27/60 4/29/63
f 38/38/64 28/42/65 12/50/66
f 15/30/67 38/38/64 12/50/66
f 4/29/63 15/30/67 12/50/66
f 27/20/62 4/29/63 12/50/66
f 36/13/61 27/20/62 12/50/66
f 11/11/59 36/13/61 12/50/66
f 8/10/68 11/11/59 12/50/66
s 2
f 24/34/41 26/22/32 1/4/1
f 29/39/58 26/22/32 24/34/41
f 2/1/2 1/4/1 25/35/31
f 14/52/69 7/8/35 25/35/31
f 25/35/31 7/8/35 2/1/2
f 1/4/1 3/3/4 30/40/42
s off
f 17/24/70 22/33/70 32/43/70
f 32/43/71 31/41/71 17/24/71
s 2
f 22/33/72 23/32/73 40/45/74
f 40/45/74 32/43/75 22/33/72
s 8
f 40/45/76 23/32/77 27/36/78
f 27/36/78 39/47/79 40/45/76
s off
f 16/23/80 22/33/80 17/24/80
s 2
f 21/31/24 1/4/1 30/40/42
s 4
f 20/28/81 33/44/46 18/25/82
f 18/25/82 33/44/46 35/46/48
s 524288
f 35/46/83 37/48/84 11/9/12
f 11/9/12 10/16/11 35/46/83
s 4
f 30/40/85 31/41/86 33/44/46
f 33/44/46 20/28/81 30/40/85
s 2
f 30/40/42 3/3/4 17/24/20
f 17/24/20 31/41/87 30/40/42
f 17/24/20 3/3/4 2/2/3
s 524288
f 35/46/83 10/16/11 18/25/28
s 1
f 32/43/44 40/45/88 34/49/89
f 34/49/89 33/44/45 32/43/44
s 16
f 40/45/90 39/47/91 36/51/92
f 36/51/92 34/49/93 40/45/90
s 2
f 25/35/31 26/22/32 14/52/69
s 16
f 14/52/94 26/22/54 38/21/53
f 38/21/53 15/53/95 14/52/94
# 78 faces

