# 3ds Max Wavefront OBJ Exporter v0.97b - (c)2007 guruware
# File Created: 31.01.2017 21:32:20

mtllib walkway_finish_opposite.mtl

#
# object walkway_finish_opposite
#

v  0.0000 0.0000 152.1461
v  0.0000 -762.0000 152.1460
v  762.0000 -762.0000 152.1460
v  1524.0000 -762.0000 -0.0001
v  1524.0000 -762.0000 152.1460
v  1524.0000 -1524.0000 152.1459
v  1524.0000 -1524.0000 -0.0001
v  1348.7400 -762.0000 152.1460
v  1348.7400 -1348.7400 152.1460
v  762.0001 -1524.0000 -0.0001
v  762.0000 -1524.0000 152.1459
v  0.0000 -1524.0000 152.1459
v  0.0000 -1524.0000 -0.0001
v  762.0001 -1348.7400 152.1460
v  0.0000 -1348.7400 152.1460
v  1348.7400 0.0000 152.1461
v  761.9999 0.0000 152.1461
v  1524.0000 0.0000 0.0000
v  1524.0000 0.0000 152.1461
v  762.0000 762.0000 152.1460
v  0.0000 762.0000 152.1460
v  1524.0000 762.0000 -0.0001
v  1524.0000 1524.0000 -0.0001
v  1524.0000 1524.0000 152.1459
v  1524.0000 762.0000 152.1460
v  1348.7400 1348.7400 152.1460
v  1348.7400 762.0000 152.1460
v  762.0000 1524.0000 -0.0001
v  0.0000 1524.0000 -0.0001
v  0.0000 1524.0000 152.1459
v  762.0000 1524.0000 152.1459
v  0.0000 1348.7400 152.1460
v  762.0001 1348.7400 152.1460
v  -762.0000 -762.0000 152.1460
v  -1524.0000 -762.0000 -0.0001
v  -1524.0000 -1524.0000 -0.0001
v  -1524.0000 -1524.0000 152.1459
v  -1524.0000 -762.0000 152.1460
v  -1348.7400 -1348.7400 152.1460
v  -1348.7400 -762.0000 152.1460
v  -762.0000 -1524.0000 -0.0001
v  -762.0000 -1524.0000 152.1459
v  -762.0000 -1348.7400 152.1460
v  -762.0000 0.0000 152.1461
v  -1348.7400 0.0000 152.1461
v  -1524.0000 0.0000 0.0000
v  -1524.0000 0.0000 152.1461
v  -762.0000 762.0000 152.1460
v  -1524.0000 762.0000 -0.0001
v  -1524.0000 762.0000 152.1460
v  -1524.0000 1524.0000 152.1459
v  -1524.0000 1524.0000 -0.0001
v  -1348.7400 762.0000 152.1460
v  -1348.7400 1348.7400 152.1460
v  -762.0000 1524.0000 -0.0001
v  -762.0000 1524.0000 152.1459
v  -762.0000 1348.7400 152.1460
v  0.0000 0.0000 -0.0000
v  762.0000 -762.0000 -0.0001
v  0.0000 -762.0000 -0.0001
v  1348.7399 -1348.7400 -0.0002
v  1348.7399 -762.0000 -0.0001
v  0.0000 -1348.7400 -0.0002
v  762.0001 -1348.7400 -0.0002
v  761.9999 0.0000 -0.0000
v  1348.7399 0.0000 -0.0000
v  0.0000 762.0000 -0.0001
v  762.0000 762.0000 -0.0001
v  1348.7399 762.0000 -0.0001
v  1348.7399 1348.7400 -0.0002
v  762.0001 1348.7400 -0.0002
v  0.0000 1348.7400 -0.0002
v  -762.0000 -762.0000 -0.0001
v  -1348.7400 -762.0000 -0.0001
v  -1348.7400 -1348.7400 -0.0002
v  -762.0000 -1348.7400 -0.0002
v  -1348.7400 0.0000 -0.0000
v  -762.0000 0.0000 -0.0000
v  -762.0000 762.0000 -0.0001
v  -1348.7400 1348.7400 -0.0002
v  -1348.7400 762.0000 -0.0001
v  -762.0000 1348.7400 -0.0002
# 82 vertices

vn 0.0000 -0.0000 1.0000
vn 1.0000 0.0000 -0.0000
vn 0.0000 -1.0000 0.0000
vn 0.0000 0.0000 1.0000
vn 1.0000 -0.0000 -0.0000
vn 0.0000 1.0000 0.0000
vn -1.0000 0.0000 0.0000
vn -0.0000 -0.0000 1.0000
vn -0.0000 0.0000 1.0000
vn 0.0000 0.0000 -1.0000
vn 0.0000 -0.0000 -1.0000
vn -0.0000 0.0000 -1.0000
vn -0.0000 -0.0000 -1.0000
# 13 vertex normals

vt 0.9048 1.0000 0.0000
vt 0.0000 0.0000 0.0000
vt 0.0000 1.0000 0.0000
vt 0.9056 0.9999 0.0000
vt 0.9951 0.9999 0.0000
vt 0.5000 1.2525 0.0000
vt 0.5000 1.3420 0.0000
vt 0.0000 1.0000 0.0000
vt 0.9031 0.0000 0.0000
vt 0.5000 2.2476 0.0000
vt 0.9056 0.9999 0.0000
vt 0.9951 0.9999 0.0000
vt 0.9951 -0.0001 0.0000
vt 0.9056 -0.0001 0.0000
vt 0.1039 0.0000 0.0000
vt 0.1040 0.1150 0.0000
vt 0.1039 0.8850 0.0000
vt 0.1040 1.0000 0.0000
vt 0.0000 0.5000 0.0000
vt 0.9951 0.4999 0.0000
vt 0.9056 0.4999 0.0000
vt 0.4524 0.5000 0.0000
vt 0.4516 0.5000 0.0000
vt 0.4524 1.0000 0.0000
vt 0.1039 0.5000 0.0000
vt 0.4516 0.0000 0.0000
vt 0.9056 0.4999 0.0000
vt 0.9951 0.4999 0.0000
vt 0.0000 0.5000 0.0000
vt 0.1040 0.5000 0.0000
vt 0.9048 1.0000 0.0000
vt 0.4524 1.0000 0.0000
vt 0.4524 0.5000 0.0000
vt 0.9056 0.9999 0.0000
vt 0.9056 0.4999 0.0000
vt 0.9951 0.4999 0.0000
vt 0.9951 0.9999 0.0000
vt 0.0000 1.0000 0.0000
vt 0.0000 0.5000 0.0000
vt 0.1039 0.5000 0.0000
vt 0.1039 0.8850 0.0000
vt 0.9056 0.9999 0.0000
vt 0.9056 0.4999 0.0000
vt 0.9951 0.4999 0.0000
vt 0.9951 0.9999 0.0000
vt 0.1040 1.0000 0.0000
vt 0.0000 1.0000 0.0000
vt 0.0000 0.5000 0.0000
vt 0.1040 0.5000 0.0000
vt 0.1039 0.0000 0.0000
vt 0.4516 0.0000 0.0000
vt 0.4516 0.5000 0.0000
vt 0.5000 1.3420 0.0000
vt 0.5000 1.2525 0.0000
vt 0.5000 2.2476 0.0000
vt 0.9056 -0.0001 0.0000
vt 0.9951 -0.0001 0.0000
vt 0.0000 0.0000 0.0000
vt 0.1040 0.1150 0.0000
vt 0.9031 0.0000 0.0000
vt 0.5000 2.1437 0.0000
vt 0.0000 2.2476 0.0000
vt 0.0000 1.2525 0.0000
vt 0.0000 1.3420 0.0000
vt 0.0000 2.1437 0.0000
vt 0.0000 1.3420 0.0000
vt 0.0000 1.2525 0.0000
vt 0.0000 2.2476 0.0000
vt 0.0000 2.1437 0.0000
vt 0.5000 2.1437 0.0000
vt 0.9048 1.0000 0.0000
vt 0.4524 1.0000 0.0000
vt 0.4524 0.5000 0.0000
vt 0.9056 0.9999 0.0000
vt 0.9056 0.4999 0.0000
vt 0.9951 0.4999 0.0000
vt 0.9951 0.9999 0.0000
vt 0.0000 1.0000 0.0000
vt 0.0000 0.5000 0.0000
vt 0.1039 0.5000 0.0000
vt 0.1039 0.8850 0.0000
vt 0.9056 0.9999 0.0000
vt 0.9056 0.4999 0.0000
vt 0.9951 0.4999 0.0000
vt 0.9951 0.9999 0.0000
vt 0.1040 1.0000 0.0000
vt 0.0000 1.0000 0.0000
vt 0.0000 0.5000 0.0000
vt 0.1040 0.5000 0.0000
vt 0.1039 0.0000 0.0000
vt 0.4516 0.0000 0.0000
vt 0.4516 0.5000 0.0000
vt 0.0000 1.3420 0.0000
vt 0.5000 1.3420 0.0000
vt 0.5000 1.2525 0.0000
vt 0.0000 1.2525 0.0000
vt 0.0000 2.2476 0.0000
vt 0.5000 2.2476 0.0000
vt 0.5000 2.1437 0.0000
vt 0.0000 2.1437 0.0000
vt 0.9056 -0.0001 0.0000
vt 0.9951 -0.0001 0.0000
vt 0.0000 0.0000 0.0000
vt 0.1040 0.1150 0.0000
vt 0.9031 0.0000 0.0000
vt 0.9048 1.0000 0.0000
vt 0.4524 0.5000 0.0000
vt 0.4524 1.0000 0.0000
vt 0.9056 0.9999 0.0000
vt 0.9951 0.9999 0.0000
vt 0.9951 0.4999 0.0000
vt 0.9056 0.4999 0.0000
vt 0.0000 1.0000 0.0000
vt 0.1039 0.8850 0.0000
vt 0.1039 0.5000 0.0000
vt 0.0000 0.5000 0.0000
vt 0.9056 0.9999 0.0000
vt 0.9951 0.9999 0.0000
vt 0.9951 0.4999 0.0000
vt 0.9056 0.4999 0.0000
vt 0.1040 1.0000 0.0000
vt 0.1040 0.5000 0.0000
vt 0.0000 0.5000 0.0000
vt 0.0000 1.0000 0.0000
vt 0.1039 0.0000 0.0000
vt 0.4516 0.5000 0.0000
vt 0.4516 0.0000 0.0000
vt 0.0000 1.3420 0.0000
vt 0.0000 1.2525 0.0000
vt 0.5000 1.2525 0.0000
vt 0.5000 1.3420 0.0000
vt 0.0000 2.2476 0.0000
vt 0.0000 2.1437 0.0000
vt 0.5000 2.1437 0.0000
vt 0.5000 2.2476 0.0000
vt 0.9951 -0.0001 0.0000
vt 0.9056 -0.0001 0.0000
vt 0.1040 0.1150 0.0000
vt 0.0000 0.0000 0.0000
vt 0.9031 0.0000 0.0000
vt 0.9048 1.0000 0.0000
vt 0.4524 1.0000 0.0000
vt 0.4524 0.5000 0.0000
vt 0.0000 1.0000 0.0000
vt 0.0000 0.5000 0.0000
vt 0.1039 0.5000 0.0000
vt 0.1039 0.8850 0.0000
vt 0.1040 1.0000 0.0000
vt 0.0000 1.0000 0.0000
vt 0.0000 0.5000 0.0000
vt 0.1040 0.5000 0.0000
vt 0.1039 0.0000 0.0000
vt 0.4516 0.0000 0.0000
vt 0.4516 0.5000 0.0000
vt 0.0000 2.2476 0.0000
vt 0.5000 2.2476 0.0000
vt 0.5000 2.1437 0.0000
vt 0.0000 2.1437 0.0000
vt 0.0000 0.0000 0.0000
vt 0.1040 0.1150 0.0000
vt 0.9031 0.0000 0.0000
vt 0.9048 1.0000 0.0000
vt 0.4524 0.5000 0.0000
vt 0.4524 1.0000 0.0000
vt 0.0000 1.0000 0.0000
vt 0.1039 0.8850 0.0000
vt 0.1039 0.5000 0.0000
vt 0.0000 0.5000 0.0000
vt 0.1040 1.0000 0.0000
vt 0.1040 0.5000 0.0000
vt 0.0000 0.5000 0.0000
vt 0.0000 1.0000 0.0000
vt 0.1039 0.0000 0.0000
vt 0.4516 0.5000 0.0000
vt 0.4516 0.0000 0.0000
vt 0.0000 2.2476 0.0000
vt 0.0000 2.1437 0.0000
vt 0.5000 2.1437 0.0000
vt 0.5000 2.2476 0.0000
vt 0.1040 0.1150 0.0000
vt 0.0000 0.0000 0.0000
vt 0.9031 0.0000 0.0000
vt 0.9048 1.0000 0.0000
vt 0.4524 0.5000 0.0000
vt 0.4524 1.0000 0.0000
vt 0.0000 1.0000 0.0000
vt 0.1039 0.8850 0.0000
vt 0.1039 0.5000 0.0000
vt 0.0000 0.5000 0.0000
vt 0.1040 1.0000 0.0000
vt 0.1040 0.5000 0.0000
vt 0.0000 0.5000 0.0000
vt 0.0000 1.0000 0.0000
vt 0.1039 0.0000 0.0000
vt 0.4516 0.5000 0.0000
vt 0.4516 0.0000 0.0000
vt 0.0000 2.2476 0.0000
vt 0.0000 2.1437 0.0000
vt 0.5000 2.1437 0.0000
vt 0.5000 2.2476 0.0000
vt 0.1040 0.1150 0.0000
vt 0.0000 0.0000 0.0000
vt 0.9031 0.0000 0.0000
vt 0.9048 1.0000 0.0000
vt 0.4524 1.0000 0.0000
vt 0.4524 0.5000 0.0000
vt 0.0000 1.0000 0.0000
vt 0.0000 0.5000 0.0000
vt 0.1039 0.5000 0.0000
vt 0.1039 0.8850 0.0000
vt 0.1040 1.0000 0.0000
vt 0.0000 1.0000 0.0000
vt 0.0000 0.5000 0.0000
vt 0.1040 0.5000 0.0000
vt 0.1039 0.0000 0.0000
vt 0.4516 0.0000 0.0000
vt 0.4516 0.5000 0.0000
vt 0.0000 2.2476 0.0000
vt 0.5000 2.2476 0.0000
vt 0.5000 2.1437 0.0000
vt 0.0000 2.1437 0.0000
vt 0.0000 0.0000 0.0000
vt 0.1040 0.1150 0.0000
vt 0.9031 0.0000 0.0000
# 224 texture coords

g walkway_finish_opposite
usemtl walkway_finish
s off
f 1/1/1 2/24/1 3/22/1
f 4/21/2 5/20/2 6/5/2
f 6/5/2 7/4/2 4/21/2
f 5/19/1 8/25/1 9/17/1
f 9/17/1 6/8/1 5/19/1
f 10/27/3 11/28/3 12/12/3
f 12/12/3 13/11/3 10/27/3
f 12/3/1 11/29/1 14/30/1
f 14/30/1 15/18/1 12/3/1
f 3/23/1 8/25/1 16/15/1
f 16/15/1 17/26/1 3/23/1
f 15/18/1 14/30/1 3/22/1
f 3/22/1 2/24/1 15/18/1
f 18/7/2 19/6/2 5/63/2
f 5/63/2 4/64/2 18/7/2
f 19/10/1 16/61/1 8/65/1
f 8/65/1 5/62/1 19/10/1
f 3/23/1 9/17/1 8/25/1
f 7/14/3 6/13/3 11/28/3
f 11/28/3 10/27/3 7/14/3
f 11/29/1 6/2/1 9/16/1
f 9/16/1 14/30/1 11/29/1
f 17/26/1 1/9/1 3/23/1
f 14/30/1 9/16/1 3/22/1
f 1/31/4 20/33/4 21/32/4
f 22/35/5 23/34/5 24/37/5
f 24/37/5 25/36/5 22/35/5
f 25/39/4 24/38/4 26/41/4
f 26/41/4 27/40/4 25/39/4
f 28/43/6 29/42/6 30/45/6
f 30/45/6 31/44/6 28/43/6
f 30/47/4 32/46/4 33/49/4
f 33/49/4 31/48/4 30/47/4
f 20/52/4 17/51/4 16/50/4
f 16/50/4 27/40/4 20/52/4
f 32/46/4 21/32/4 20/33/4
f 20/33/4 33/49/4 32/46/4
f 18/53/5 22/66/5 25/67/5
f 25/67/5 19/54/5 18/53/5
f 19/55/4 25/68/4 27/69/4
f 27/69/4 16/70/4 19/55/4
f 20/52/4 27/40/4 26/41/4
f 23/56/6 28/43/6 31/44/6
f 31/44/6 24/57/6 23/56/6
f 31/48/4 33/49/4 26/59/4
f 26/59/4 24/58/4 31/48/4
f 17/51/4 20/52/4 1/60/4
f 33/49/4 20/33/4 26/59/4
f 1/71/1 34/73/1 2/72/1
f 35/75/7 36/74/7 37/77/7
f 37/77/7 38/76/7 35/75/7
f 38/79/8 37/78/8 39/81/8
f 39/81/1 40/80/1 38/79/1
f 41/83/3 13/82/3 12/85/3
f 12/85/3 42/84/3 41/83/3
f 12/87/1 15/86/1 43/89/1
f 43/89/1 42/88/1 12/87/1
f 34/92/1 44/91/1 45/90/1
f 45/90/1 40/80/1 34/92/1
f 15/86/1 2/72/1 34/73/1
f 34/73/1 43/89/1 15/86/1
f 46/94/7 35/93/7 38/96/7
f 38/96/7 47/95/7 46/94/7
f 47/98/1 38/97/1 40/100/1
f 40/100/1 45/99/1 47/98/1
f 34/92/1 40/80/1 39/81/1
f 36/101/3 41/83/3 42/84/3
f 42/84/3 37/102/3 36/101/3
f 42/88/1 43/89/1 39/104/1
f 39/104/1 37/103/1 42/88/1
f 44/91/1 34/92/1 1/105/1
f 43/89/1 34/73/1 39/104/1
f 1/106/4 21/108/4 48/107/4
f 49/112/7 50/111/7 51/110/7
f 51/110/7 52/109/7 49/112/7
f 50/116/4 53/115/4 54/114/4
f 54/114/9 51/113/9 50/116/9
f 55/120/6 56/119/6 30/118/6
f 30/118/6 29/117/6 55/120/6
f 30/124/4 56/123/4 57/122/4
f 57/122/4 32/121/4 30/124/4
f 48/126/4 53/115/4 45/125/4
f 45/125/4 44/127/4 48/126/4
f 32/121/4 57/122/4 48/107/4
f 48/107/4 21/108/4 32/121/4
f 46/131/7 47/130/7 50/129/7
f 50/129/7 49/128/7 46/131/7
f 47/135/4 45/134/4 53/133/4
f 53/133/4 50/132/4 47/135/4
f 48/126/4 54/114/4 53/115/4
f 52/137/6 51/136/6 56/119/6
f 56/119/6 55/120/6 52/137/6
f 56/123/4 51/139/4 54/138/4
f 54/138/4 57/122/4 56/123/4
f 44/127/4 1/140/4 48/126/4
f 57/122/4 54/138/4 48/107/4
f 58/141/10 59/143/10 60/142/10
f 4/145/10 7/144/10 61/147/10
f 61/147/10 62/146/10 4/145/10
f 13/149/11 63/148/11 64/151/11
f 64/151/11 10/150/11 13/149/11
f 59/154/10 65/153/10 66/152/10
f 66/152/10 62/146/10 59/154/10
f 63/148/10 60/142/10 59/143/10
f 59/143/10 64/151/10 63/148/10
f 18/156/10 4/155/10 62/158/10
f 62/158/10 66/157/10 18/156/10
f 59/154/10 62/146/10 61/147/10
f 10/150/11 64/151/11 61/160/11
f 61/160/11 7/159/11 10/150/11
f 65/153/10 59/154/10 58/161/10
f 64/151/10 59/143/10 61/160/10
f 58/162/11 67/164/11 68/163/11
f 22/168/11 69/167/11 70/166/11
f 70/166/11 23/165/11 22/168/11
f 29/172/10 28/171/10 71/170/10
f 71/170/10 72/169/10 29/172/10
f 68/174/11 69/167/11 66/173/11
f 66/173/11 65/175/11 68/174/11
f 72/169/11 71/170/11 68/163/11
f 68/163/11 67/164/11 72/169/11
f 18/179/11 66/178/11 69/177/11
f 69/177/11 22/176/11 18/179/11
f 68/174/11 70/166/11 69/167/11
f 28/171/10 23/181/10 70/180/10
f 70/180/10 71/170/10 28/171/10
f 65/175/11 58/182/11 68/174/11
f 71/170/11 70/180/11 68/163/11
f 58/183/10 60/185/10 73/184/10
f 35/189/12 74/188/12 75/187/12
f 75/187/12 36/186/12 35/189/12
f 13/193/11 41/192/11 76/191/11
f 76/191/11 63/190/11 13/193/11
f 73/195/10 74/188/10 77/194/10
f 77/194/10 78/196/10 73/195/10
f 63/190/10 76/191/10 73/184/10
f 73/184/10 60/185/10 63/190/10
f 46/200/12 77/199/12 74/198/12
f 74/198/12 35/197/12 46/200/12
f 73/195/10 75/187/10 74/188/10
f 41/192/11 36/202/11 75/201/11
f 75/201/11 76/191/11 41/192/11
f 78/196/10 58/203/10 73/195/10
f 76/191/10 75/201/10 73/184/10
f 58/204/11 79/206/11 67/205/11
f 49/208/13 52/207/13 80/210/13
f 80/210/13 81/209/13 49/208/13
f 29/212/10 72/211/10 82/214/10
f 82/214/10 55/213/10 29/212/10
f 79/217/11 78/216/11 77/215/11
f 77/215/11 81/209/11 79/217/11
f 72/211/11 67/205/11 79/206/11
f 79/206/11 82/214/11 72/211/11
f 46/219/13 49/218/13 81/221/13
f 81/221/13 77/220/13 46/219/13
f 79/217/11 81/209/11 80/210/11
f 55/213/10 82/214/10 80/223/10
f 80/223/10 52/222/10 55/213/10
f 78/216/11 79/217/11 58/224/11
f 82/214/11 79/206/11 80/223/11
# 160 faces

